<svg class="svg-icon" style="width: 1em; height: 1em;vertical-align: middle;fill: currentColor;overflow: hidden;" viewBox="0 0 1024 1024" version="1.1" xmlns="http://www.w3.org/2000/svg"><path d="M511.998 81.856c-237.556 0-430.14 192.586-430.14 430.15 0 237.546 192.584 430.136 430.14 430.136S942.14 749.552 942.14 512.006c0-237.562-192.586-430.15-430.142-430.15z" fill="#EDF3FC" /><path d="M511.998 2C230.784 2 2 230.786 2 512.006 2 793.212 230.784 1022 511.998 1022 793.214 1022 1022 793.212 1022 512.006 1022 230.786 793.214 2 511.998 2z m0 1003.656c-272.204 0-493.66-221.456-493.66-493.65 0-272.21 221.456-493.668 493.66-493.668s493.664 221.458 493.664 493.668c0 272.196-221.458 493.65-493.664 493.65z" fill="#EDF3FC" /><path d="M258.44 366.3a57.708 57.708 0 0 1-41.96-41.96l-0.886-3.518-0.884 3.518a57.71 57.71 0 0 1-41.962 41.96l-3.524 0.89 3.524 0.882a57.714 57.714 0 0 1 41.962 41.96l0.884 3.528 0.886-3.528a57.712 57.712 0 0 1 41.96-41.96l3.53-0.882-3.53-0.89z" fill="#FFBE1B" /><path d="M208.582 499.618a46.062 46.062 0 0 1-33.482-33.48l-0.702-2.812-0.708 2.812a46.054 46.054 0 0 1-33.482 33.48l-2.81 0.716 2.81 0.71a46.034 46.034 0 0 1 33.482 33.468l0.708 2.816 0.702-2.816a46.044 46.044 0 0 1 33.482-33.468l2.814-0.71-2.814-0.716z" fill="#5D8EF9" /><path d="M446.294 297.522c-1.25-1.018-2.636-1.344-4.012-1.266-2.302 16.634-3.916 23.098-3.916 23.098l-0.146-0.54a1927.2 1927.2 0 0 1 0.45 13.884c1.064 0.204 2.188 0.176 3.236-0.336 3.512-1.716 6.728-15.522 7.904-19.984 1.174-4.458 1.534-10.748-3.516-14.856zM298.024 328.958l0.064-0.452-0.064 0.452z m-4.828-22.228c-0.204-1.476-1.81-5.336-3.686-10.466a5.54 5.54 0 0 0-3.29 1.258c-5.05 4.11-4.686 10.398-3.516 14.858 1.174 4.46 4.394 18.266 7.908 19.984 2.766 1.35 6.07-0.624 7.35-1.524l0.008-1.524 0.052-0.356c-0.052 0.358-0.084 0.556-0.084 0.556s-3.498-13.726-4.742-22.786z m5.3 18.622l0.018-0.15v-0.002l-0.018 0.152zM401.622 400.148c-1.236-3.85-1.866-7.814-2.122-11.618-5.592 3.324-11.08 5.892-16.536 8.418-4.658 2.152-21.662 2.672-27.446-0.016-4.448-2.07-10.262-5.104-16.102-8.534-0.252 3.846-0.882 7.86-2.13 11.75-1.442 4.498-10.432 8.19-20.33 11.85 1.91 2.636 20.256 26.726 52.85 26.726 33.956 0 51.494-24.882 52.748-26.726-10.602-3.328-19.244-6.582-20.932-11.85z" fill="#FFBE1B" /><path d="M438.222 318.802c-0.698-2.648-3.668-14.886-3.384-29.442 0.156-7.926 0.99-17.066 0.076-22.854-0.914-5.792-3.964-15.24-10.968-15.846 0 0-31.212 34.976-98.146 30.582-6.492-0.428-12.26-1.454-17.41-2.928-6.378 4.972-8.676 11.236-8.494 16.37 0.592 17.264-1.636 32.73-1.922 34.628-0.02 2.816-0.032 5.512-0.032 8.016 0 17.786 10.956 29.284 27.206 41.678 9.064 6.918 22.098 14.07 30.374 17.924 5.784 2.688 22.79 2.168 27.446 0.016 8.744-4.046 17.57-8.208 26.772-15.41 15.078-11.79 29.1-25.148 29.1-40.15-0.004-3.784-0.248-12.136-0.618-22.584z" fill="#FFE37B" /><path d="M438.118 220.08c-7.722-9.406-17.37-14.196-28.042-12.886-8.122-10.57-20.99-18.59-41.424-17.418-32.112 1.85-32.474 18.702-57.038 26.074-24.562 7.376-34.454-12.026-44.312-5.356-9.862 6.666-4.044 32.008 15.91 53.036-1.656 17.292 9.43 39.156 9.986 43.202 1.244 9.06 4.744 22.782 4.744 22.782s2.588-16.39 1.954-34.826c-0.18-5.132 2.116-11.396 8.494-16.37 5.15 1.474 10.918 2.5 17.41 2.928 66.934 4.394 98.146-30.582 98.146-30.582 7.004 0.606 10.054 10.054 10.968 15.846 0.914 5.788 0.082 14.928-0.076 22.854-0.32 16.468 3.53 29.992 3.53 29.992s1.824-7.306 4.362-26.39c1.452-10.918 15.862-47.952-4.612-72.886z" fill="#330D84" /><path d="M457.222 422.306l-34.59-10.426s-17.562 26.844-52.826 26.844c-34.484 0-53.026-26.976-53.026-26.976l-36.042 10.664a45.162 45.162 0 0 0-32.342 43.304v49.188h240.95v-49.366c0-19.92-13.05-37.488-32.124-43.232z" fill="#5D8EF9" /><path d="M739.142 583.616c-1.252-1.02-2.636-1.344-4.012-1.266-2.302 16.632-3.916 23.098-3.916 23.098s-0.056-0.198-0.146-0.54c0.188 5.268 0.342 10 0.45 13.884 1.064 0.202 2.188 0.174 3.236-0.338 3.512-1.714 6.726-15.522 7.904-19.982 1.172-4.458 1.534-10.746-3.516-14.856zM590.788 615.608s-3.5-13.722-4.744-22.786c-0.204-1.474-1.81-5.336-3.686-10.464a5.54 5.54 0 0 0-3.29 1.258c-5.05 4.11-4.686 10.398-3.516 14.858 1.172 4.46 4.392 18.268 7.908 19.982 2.764 1.352 6.068-0.622 7.348-1.522l0.008-1.522-0.028 0.196zM694.468 686.244c-1.236-3.85-1.866-7.814-2.122-11.62-5.592 3.324-11.08 5.892-16.536 8.42-4.656 2.152-21.662 2.67-27.446-0.016-4.446-2.07-10.262-5.106-16.102-8.536-0.252 3.846-0.882 7.862-2.13 11.752-1.444 4.498-10.432 8.19-20.33 11.846 1.912 2.638 20.256 26.728 52.85 26.728 33.956 0 51.492-24.882 52.746-26.728-10.6-3.328-19.24-6.58-20.93-11.846z" fill="#FFBE1B" /><path d="M731.068 604.898c-0.698-2.65-3.666-14.886-3.384-29.44 0.158-7.926 0.99-17.066 0.076-22.854-0.914-5.79-3.964-15.24-10.966-15.848 0 0-31.212 34.978-98.148 30.584-6.492-0.428-12.26-1.454-17.41-2.928-6.38 4.972-8.676 11.236-8.496 16.366 0.592 17.266-1.634 32.732-1.922 34.63-0.02 2.816-0.03 5.512-0.03 8.016 0 17.786 10.956 29.284 27.204 41.678 9.064 6.916 22.098 14.07 30.374 17.924 5.786 2.688 22.79 2.168 27.446 0.016 8.744-4.048 17.57-8.21 26.772-15.412 15.078-11.79 29.1-25.148 29.1-40.15 0-3.782-0.244-12.136-0.616-22.582z" fill="#FFE37B" /><path d="M730.964 506.176c-7.722-9.406-17.37-14.196-28.044-12.888-8.122-10.57-20.99-18.59-41.424-17.416-32.11 1.85-32.474 18.704-57.036 26.074-24.562 7.376-34.454-12.026-44.312-5.356-9.862 6.666-4.046 32.008 15.908 53.036-1.656 17.294 9.43 39.156 9.986 43.198 1.244 9.062 4.744 22.786 4.744 22.786s2.586-16.39 1.954-34.83c-0.18-5.13 2.116-11.394 8.496-16.366 5.15 1.474 10.918 2.5 17.41 2.928 66.934 4.394 98.148-30.584 98.148-30.584 7.002 0.608 10.054 10.056 10.966 15.848 0.916 5.788 0.082 14.928-0.076 22.854-0.32 16.468 3.53 29.992 3.53 29.992s1.824-7.306 4.362-26.39c1.452-10.918 15.862-47.952-4.612-72.886z" fill="#330D84" /><path d="M750.07 708.4l-34.592-10.426s-17.564 26.844-52.826 26.844c-34.484 0-53.028-26.976-53.028-26.976l-36.044 10.664a45.16 45.16 0 0 0-32.34 43.304V801h240.95v-49.366a45.138 45.138 0 0 0-32.12-43.234z" fill="#5D8EF9" /><path d="M856.72 526.786a48.22 48.22 0 0 1-35.054-35.046l-0.734-2.944-0.744 2.944a48.2 48.2 0 0 1-35.054 35.046l-2.94 0.742 2.94 0.748a48.194 48.194 0 0 1 35.054 35.052l0.744 2.942 0.734-2.942a48.212 48.212 0 0 1 35.054-35.052l2.946-0.748-2.946-0.742zM798.742 388.85a10 10 0 0 0-13.43 4.43l-18.786 37.282c-14.442-53.51-45.496-101.846-88.614-137.426-47.978-39.592-108.72-61.4-171.036-61.4a10 10 0 0 0 0 20c113.23 0 212.406 77.322 240.776 185.68l-39.958-19.48a10.002 10.002 0 0 0-8.766 17.98l61.21 29.838a10 10 0 0 0 13.314-4.49l29.718-58.984a9.996 9.996 0 0 0-4.428-13.43z" fill="#330D84" /><path d="M514.246 760.764c-113.23 0-212.406-77.322-240.776-185.678l39.958 19.48a10 10 0 1 0 8.766-17.978l-61.21-29.84a10 10 0 0 0-13.314 4.49l-29.718 58.984a10 10 0 1 0 17.86 9l18.786-37.282c14.442 53.51 45.496 101.846 88.614 137.426 47.978 39.594 108.72 61.4 171.034 61.4a10 10 0 1 0 0-20.002z" fill="#5D8EF9" /></svg>