<?xml version="1.0" encoding="utf-8"?>
<!-- Generator: Adobe Illustrator 18.0.0, SVG Export Plug-In . SVG Version: 6.00 Build 0)  -->
<!DOCTYPE svg PUBLIC "-//W3C//DTD SVG 1.1//EN" "http://www.w3.org/Graphics/SVG/1.1/DTD/svg11.dtd">
<svg version="1.1" id="Layer_1" xmlns="http://www.w3.org/2000/svg" xmlns:xlink="http://www.w3.org/1999/xlink" x="0px" y="0px"
	 width="256px" height="256px" viewBox="0 0 256 256" enable-background="new 0 0 256 256" xml:space="preserve">
<g>
	<g>
		<g>
			<path fill="#FFD552" d="M256,90c-7,0-13.6-2.7-18.5-7.7c-5-5-7.7-11.5-7.7-18.5c0-14.5,11.8-26.2,26.2-26.2"/>
		</g>
	</g>
	<g>
		<path fill="#4A555F" d="M214.8,252.2h-3.1v-84.8l-9.4,10.3c-5.3,5.8-12.6,9.1-20.5,9.3c-7.9,0.2-15.3-2.7-21-8.1l-27.6-26.7
			c-8.6-8.3-9-22.2-0.8-31c8.2-8.9,22.2-9.5,31.2-1.4l19.1,17.3l20.5-21.7c11.5-11.9,22.5-19.8,38.4-19.9c-3.7-1.7-7.2-4.1-10.2-7.1
			c-6.6-6.6-10.2-15.3-10.2-24.6c0-19.2,15.6-34.8,34.8-34.8v3.1c-17.5,0-31.7,14.2-31.7,31.7c0,8.5,3.3,16.4,9.3,22.4
			c6,6,14,9.3,22.4,9.3v3.1h-14.3c-14.9,0-25.3,7.6-36.2,18.9l-22.6,23.9L161.4,122c-7.7-7-19.7-6.5-26.8,1.2
			c-7,7.5-6.7,19.5,0.7,26.6l27.6,26.7c5,4.9,11.7,7.5,18.7,7.3c7-0.2,13.5-3.2,18.3-8.3l14.9-16.1V252.2z"/>
	</g>
	<g>
		<path fill="#4A555F" d="M134.5,123.4l-2.4-2c0.1-0.1,0.2-0.3,0.4-0.4c4.1-4.5,10.1-7.1,16.2-7.1c4.4,0,8.7,1.3,12.4,3.8l-1.7,2.6
			c-3.1-2.1-6.8-3.2-10.6-3.2c-5.3,0-10.4,2.2-14,6.1C134.5,123.3,134.5,123.3,134.5,123.4z"/>
	</g>
	<g>
		<path fill="#E0E0E0" d="M218.4,252.2v-88.8V150l-9,9.8L197.2,173c-4.1,4.4-9.7,7-15.7,7.2c-0.2,0-0.4,0-0.7,0
			c-5.8,0-11.3-2.2-15.4-6.3l-27.6-26.7c-6-5.8-6.2-15.5-0.6-21.6c3-3.3,7.2-4.9,11.3-4.9c3.7,0,7.4,1.3,10.3,4l20.3,18.4l3.8,3.4
			l3.5-3.7l21.5-22.8c10.6-11,20-17.8,33.6-17.8H256h0v149.9L218.4,252.2z"/>
	</g>
	<g>
		<path fill="#4A555F" d="M131.7,126.9l0-36.9c0-4.1,3.3-7.4,7.4-7.4h15.3c4.1,0,7.4,3.3,7.4,7.4v32l-2.4-1.6
			c-3.1-2.1-6.8-3.2-10.6-3.2c-5.3,0-10.4,2.2-14,6.1c-0.1,0.1-0.1,0.2-0.2,0.2L131.7,126.9z M132,121.5l1.2,1L132,121.5z M139,85.8
			c-2.3,0-4.3,1.9-4.3,4.3v28.8c3.9-3.1,8.8-4.8,13.8-4.8c3.5,0,6.9,0.8,9.9,2.4V90c0-2.3-1.9-4.3-4.3-4.3H139z"/>
	</g>
	<g>
		<path fill="#F68F6F" d="M138.4,90c0-0.3,0.3-0.6,0.6-0.6h15.3c0.3,0,0.6,0.3,0.6,0.6v21.1c-2-0.5-4.2-0.8-6.3-0.8
			c-3.5,0-7,0.7-10.2,2.1V90z"/>
	</g>
	<g>
		<g>
			<path fill="#FFD552" d="M0,90c7,0,13.6-2.7,18.5-7.7c5-5,7.7-11.5,7.7-18.5c0-14.5-11.8-26.2-26.2-26.2"/>
		</g>
	</g>
	<g>
		<path fill="#4A555F" d="M44.4,252.2h-3.1v-92.8l14.9,16.1c4.8,5.2,11.3,8.1,18.3,8.3c7,0.2,13.7-2.4,18.7-7.3l27.6-26.7
			c7.4-7.2,7.7-19.1,0.7-26.6c-7.1-7.6-19.1-8.1-26.8-1.2l-21.4,19.4l-22.6-23.9c-11-11.3-21.3-18.9-36.2-18.9H0c0,0,0,0,0,0v-3.1
			c0,0,0,0,0,0c8.5,0,16.4-3.3,22.4-9.3c6-6,9.3-14,9.3-22.4c0-17.5-14.2-31.7-31.7-31.7V29c19.2,0,34.8,15.6,34.8,34.8
			c0,9.3-3.6,18-10.2,24.6c-3,3-6.4,5.4-10.2,7.1c15.9,0,26.8,8,38.4,19.9l20.5,21.7l19.1-17.3c9-8.1,22.9-7.5,31.2,1.4
			c8.1,8.8,7.8,22.7-0.8,31l-27.6,26.7c-5.7,5.5-13.1,8.4-21,8.1c-7.9-0.2-15.1-3.5-20.5-9.3l-9.4-10.3V252.2z"/>
	</g>
	<g>
		<path fill="#4A555F" d="M121.5,123.4c0-0.1-0.1-0.1-0.1-0.2c-3.6-3.9-8.7-6.1-14-6.1c-3.8,0-7.5,1.1-10.6,3.2l-1.7-2.6
			c3.7-2.5,7.9-3.8,12.4-3.8c6.1,0,12.1,2.6,16.3,7.1c0.1,0.1,0.2,0.2,0.3,0.4L121.5,123.4z"/>
	</g>
	<g>
		<path fill="#E0E0E0" d="M37.6,252.2v-88.8V150l9,9.8L58.8,173c4.1,4.4,9.7,7,15.7,7.2c0.2,0,0.4,0,0.7,0c5.8,0,11.3-2.2,15.4-6.3
			l27.6-26.7c6-5.8,6.2-15.5,0.6-21.6c-3-3.3-7.2-4.9-11.3-4.9c-3.7,0-7.4,1.3-10.3,4l-20.3,18.4l-3.8,3.4l-3.5-3.7L48,120.1
			c-10.6-11-20-17.8-33.6-17.8H0h0l0,149.9L37.6,252.2z"/>
	</g>
	<g>
		<path fill="#4A555F" d="M124.3,126.9l-2.8-3.5c0-0.1-0.1-0.1-0.1-0.2c-3.6-3.9-8.7-6.1-14-6.1c-3.8,0-7.5,1.1-10.6,3.2l-2.4,1.6
			V90c0-4.1,3.3-7.4,7.4-7.4H117c4.1,0,7.4,3.3,7.4,7.4V126.9z M107.4,114c5,0,9.9,1.7,13.8,4.8V90c0-2.3-1.9-4.3-4.3-4.3h-15.3
			c-2.3,0-4.3,1.9-4.3,4.3v26.3C100.5,114.8,103.9,114,107.4,114z"/>
	</g>
	<g>
		<path fill="#F68F6F" d="M117.6,112.4c-3.2-1.4-6.7-2.1-10.2-2.1c-2.1,0-4.3,0.3-6.3,0.8V90c0-0.3,0.3-0.6,0.6-0.6H117
			c0.3,0,0.6,0.3,0.6,0.6V112.4z"/>
	</g>
	<g>
		<path fill="#4A555F" d="M128,76C112.1,76,99.1,63,99.1,47.1s12.9-28.9,28.9-28.9s28.9,12.9,28.9,28.9S143.9,76,128,76z M128,21.4
			c-14.2,0-25.7,11.5-25.7,25.7s11.5,25.7,25.7,25.7s25.7-11.5,25.7-25.7S142.2,21.4,128,21.4z"/>
	</g>
	<g>
		<path fill="#71CDE1" d="M128,69.2c-12.2,0-22.1-9.9-22.1-22.1S115.8,25,128,25c12.2,0,22.1,9.9,22.1,22.1S140.2,69.2,128,69.2z"/>
	</g>
	<g>
		<path fill="#4A555F" d="M124.5,67.6V50.9l-4.6,4.3l-2.1-2.3l6.1-5.6l-6.4-5.9l2.1-2.3l4.9,4.6V26.9l13.3,11.7l-9.4,8.7l9.4,8.7
			L124.5,67.6z M127.6,50.7v10l5.6-4.9L127.6,50.7z M127.6,33.8v10l5.6-5.1L127.6,33.8z"/>
	</g>
	<g>
		<path fill="#4A555F" d="M157.2,78.8l-2.1-2.3c0.7-0.7,1.5-1.4,2.1-2.1l2.3,2.1C158.8,77.4,158,78.1,157.2,78.8z M96.4,76.4
			c-0.7-0.8-1.4-1.6-2.1-2.4l2.4-1.9c0.6,0.8,1.3,1.5,2,2.3L96.4,76.4z M161.6,74.1l-2.4-2c0.6-0.8,1.2-1.6,1.8-2.4l2.6,1.8
			C163,72.4,162.3,73.3,161.6,74.1z M92.3,71.4c-0.6-0.9-1.2-1.8-1.7-2.7l2.7-1.6c0.5,0.9,1,1.7,1.6,2.5L92.3,71.4z M165.3,68.8
			l-2.7-1.6c0.5-0.9,1-1.7,1.4-2.6l2.8,1.4C166.4,66.9,165.8,67.9,165.3,68.8z M89.1,65.8c-0.5-1-0.9-2-1.3-3l2.9-1.1
			c0.4,0.9,0.8,1.9,1.2,2.7L89.1,65.8z M168.1,63l-2.9-1.2c0.4-0.9,0.7-1.9,1-2.8l3,0.9C168.9,61,168.5,62,168.1,63z M86.7,59.8
			c-0.3-1-0.6-2.1-0.8-3.1l3-0.7c0.2,1,0.5,1.9,0.8,2.9L86.7,59.8z M170.1,56.8l-3-0.7c0.2-1,0.4-2,0.6-2.9l3.1,0.5
			C170.5,54.7,170.3,55.8,170.1,56.8z M85.3,53.5c-0.2-1.1-0.3-2.1-0.4-3.2L88,50c0.1,1,0.2,2,0.3,3L85.3,53.5z M171.1,50.5
			l-3.1-0.2c0.1-1,0.1-2,0.1-3l3.1,0C171.2,48.3,171.1,49.4,171.1,50.5z M87.9,47h-3.1c0-1.1,0-2.2,0.1-3.2L88,44
			C88,45,87.9,46,87.9,47z M168,44.2L168,44.2c-0.1-1-0.2-2-0.3-3l3.1-0.4c0.2,1,0.3,2.1,0.3,3.1l-1.6,0.2L168,44.2z M88.4,41
			l-3.1-0.5c0.2-1.1,0.4-2.1,0.6-3.2l3,0.7C88.7,39.1,88.5,40,88.4,41z M167.1,38.3c-0.2-1-0.5-1.9-0.8-2.9l3-0.9
			c0.3,1,0.6,2.1,0.8,3.1L167.1,38.3z M89.7,35.2l-3-0.9c0.3-1,0.7-2.1,1.1-3.1l2.9,1.1C90.3,33.3,90,34.2,89.7,35.2z M165.4,32.5
			c-0.4-0.9-0.8-1.9-1.2-2.8l2.8-1.4c0.5,1,0.9,2,1.3,3L165.4,32.5z M91.9,29.6l-2.8-1.4c0.5-1,1-1.9,1.5-2.9l2.7,1.6
			C92.8,27.8,92.3,28.7,91.9,29.6z M162.8,27.1c-0.5-0.9-1-1.7-1.6-2.5l2.6-1.8c0.6,0.9,1.2,1.8,1.7,2.7L162.8,27.1z M94.9,24.4
			l-2.6-1.8c0.6-0.9,1.3-1.8,1.9-2.6l2.4,1.9C96.1,22.8,95.5,23.6,94.9,24.4z M159.4,22.2c-0.6-0.8-1.3-1.5-2-2.3l2.3-2.1
			c0.7,0.8,1.4,1.6,2.1,2.5L159.4,22.2z M98.6,19.7l-2.3-2.1c0.7-0.8,1.5-1.6,2.3-2.3l2.1,2.3C100,18.3,99.3,19,98.6,19.7z
			 M155.3,17.8c-0.7-0.7-1.5-1.3-2.3-2l2-2.4c0.8,0.7,1.7,1.4,2.4,2.1L155.3,17.8z M103,15.7l-1.9-2.4c0.8-0.7,1.7-1.3,2.6-1.9
			l1.8,2.6C104.6,14.4,103.8,15,103,15.7z M150.6,14c-0.8-0.6-1.7-1.1-2.5-1.6l1.6-2.7c0.9,0.5,1.8,1.1,2.7,1.7L150.6,14z M108,12.3
			l-1.6-2.7c0.9-0.5,1.9-1,2.9-1.5l1.4,2.8C109.8,11.3,108.9,11.8,108,12.3z M145.5,11c-0.9-0.4-1.8-0.8-2.7-1.2l1.2-2.9
			c1,0.4,2,0.8,3,1.3L145.5,11z M113.4,9.7l-1.1-2.9c1-0.4,2-0.8,3.1-1.1l0.9,3C115.3,9,114.3,9.3,113.4,9.7z M139.9,8.8
			C139,8.5,138,8.2,137,8l0.7-3c1,0.2,2.1,0.5,3.1,0.8L139.9,8.8z M119.2,7.9l-0.7-3c1-0.2,2.1-0.4,3.2-0.6l0.5,3.1
			C121.1,7.5,120.1,7.7,119.2,7.9z M134.1,7.4c-1-0.1-2-0.3-3-0.3l0.2-3.1c1.1,0.1,2.2,0.2,3.2,0.4L134.1,7.4z M125.1,7.1l-0.2-3.1
			c1-0.1,2.1-0.1,3.1-0.1l0.1,3.1H128C127,7,126,7,125.1,7.1z"/>
	</g>
</g>
</svg>
